<svg xmlns="http://www.w3.org/2000/svg" xmlns:xlink="http://www.w3.org/1999/xlink" x="0px" y="0px"
	 viewBox="0 0 100 100" style="enable-background:new 0 0 100 100;" xml:space="preserve">
<path d="M99,51.2c-0.3,1.8-1.6,3-2.8,4.2C85.3,66.3,74.5,77.1,63.6,88c-2.6,2.6-5.9,3-8.4,0.9c-2.4-2-2.9-5.7-0.9-8.1
	c1.7-2,3.7-3.8,5.5-5.7c4.9-4.9,9.9-9.8,14.8-14.7c0.3-0.3,0.6-0.6,0.8-0.9c0.9-1.3,0.3-3-1.3-3.4c-0.5-0.1-1-0.1-1.5-0.1
	c-21.7,0-43.4,0-65.1,0c-2.6,0-4.7-0.9-6-3.3C1.4,52.1,1.2,51.5,1,51c0-0.7,0-1.3,0-2c0.6-1.1,1.1-2.3,1.9-3.2
	c1.2-1.4,3-1.6,4.9-1.6c21.5,0,43,0,64.5,0c0.4,0,0.7,0,1.1,0c1.1,0,1.9-0.4,2.4-1.4c0.5-1,0.1-1.9-0.7-2.7
	c-3.3-3.4-6.7-6.7-10-10.1c-3.3-3.3-6.6-6.6-9.9-9.9c-2.3-2.3-2.6-5.6-0.7-8c2-2.6,5.9-3.1,8.3-0.9c2.5,2.3,4.8,4.7,7.2,7
	c8,8,16,15.9,24,23.9c1.2,1.2,2.3,2.3,3.5,3.5c0.9,0.9,1.6,1.9,1.7,3.2C99,49.6,99,50.4,99,51.2z"/>
</svg>
